<svg width="512" height="512" viewBox="0 0 512 512" fill="none" xmlns="http://www.w3.org/2000/svg">
<path d="M256 512C397.385 512 512 397.385 512 256C512 114.615 397.385 0 256 0C114.615 0 0 114.615 0 256C0 397.385 114.615 512 256 512Z" fill="#EF6643"/>
<path d="M512 256C512 248.513 511.678 241.102 511.049 233.778L445.32 168.05L70.248 347.646L233.638 511.036C241.007 511.674 248.466 512 256 512C397.385 512 512 397.385 512 256Z" fill="#EC4F27"/>
<path d="M256 385.326H161.495C90.0699 385.326 32.1689 327.425 32.1689 256C32.1689 184.575 90.0699 126.674 161.495 126.674H256C327.424 126.674 327.424 385.326 256 385.326Z" fill="#565656"/>
<path d="M350.505 126.674H256V385.325H350.505C421.93 385.325 479.831 327.424 479.831 255.999C479.831 184.575 421.93 126.674 350.505 126.674Z" fill="#353535"/>
<path d="M151.232 323.387C188.449 323.387 218.619 293.217 218.619 256C218.619 218.783 188.449 188.613 151.232 188.613C114.015 188.613 83.845 218.783 83.845 256C83.845 293.217 114.015 323.387 151.232 323.387Z" fill="white"/>
<path d="M353.977 256C353.977 229.94 375.103 208.814 401.163 208.814C404.841 208.814 408.422 209.235 411.858 210.032C399.558 196.853 382.034 188.614 362.585 188.614C325.368 188.614 295.198 218.784 295.198 256.001C295.198 293.218 325.368 323.388 362.585 323.388C382.034 323.388 399.558 315.148 411.858 301.97C408.422 302.766 404.841 303.187 401.163 303.187C375.103 303.186 353.977 282.06 353.977 256Z" fill="#F4E471"/>
</svg>
