<svg width="578" height="89" viewBox="0 0 578 89" fill="none" xmlns="http://www.w3.org/2000/svg">
<g clip-path="url(#clip0_515_90)">
<path d="M44.2783 88.5566C68.7326 88.5566 88.5566 68.7326 88.5566 44.2783C88.5566 19.8241 68.7326 0 44.2783 0C19.8241 0 0 19.8241 0 44.2783C0 68.7326 19.8241 88.5566 44.2783 88.5566Z" fill="#EF6643"/>
<path d="M88.5568 44.2784C88.5568 42.9835 88.5011 41.7016 88.3923 40.4349L77.0237 29.0664L12.1504 60.1297L40.4107 88.39C41.6852 88.5004 42.9754 88.5568 44.2785 88.5568C68.7327 88.5568 88.5568 68.7327 88.5568 44.2784Z" fill="#EC4F27"/>
<path d="M44.2783 66.6472H27.9325C15.5786 66.6472 5.56396 56.6325 5.56396 44.2787C5.56396 31.9248 15.5786 21.9102 27.9325 21.9102H44.2783C56.6319 21.9102 56.6319 66.6472 44.2783 66.6472Z" fill="#565656"/>
<path d="M60.6241 21.9102H44.2783V66.647H60.6241C72.9779 66.647 82.9926 56.6323 82.9926 44.2785C82.9926 31.9248 72.9779 21.9102 60.6241 21.9102Z" fill="#353535"/>
<path d="M26.1574 55.9343C32.5945 55.9343 37.8128 50.716 37.8128 44.2789C37.8128 37.8418 32.5945 32.6235 26.1574 32.6235C19.7203 32.6235 14.502 37.8418 14.502 44.2789C14.502 50.716 19.7203 55.9343 26.1574 55.9343Z" fill="white"/>
<path d="M61.2246 44.2793C61.2246 39.7719 64.8786 36.1179 69.386 36.1179C70.0222 36.1179 70.6416 36.1907 71.2359 36.3285C69.1084 34.0491 66.0775 32.624 62.7135 32.624C56.2764 32.624 51.0581 37.8423 51.0581 44.2794C51.0581 50.7166 56.2764 55.9348 62.7135 55.9348C66.0775 55.9348 69.1084 54.5096 71.2359 52.2303C70.6416 52.368 70.0222 52.4408 69.386 52.4408C64.8786 52.4406 61.2246 48.7866 61.2246 44.2793Z" fill="#F4E471"/>
<path d="M554.688 69.5156V31.0971H565.018V37.8004H565.419C566.119 35.4159 567.295 33.615 568.945 32.3978C570.596 31.1638 572.497 30.5469 574.648 30.5469C575.182 30.5469 575.757 30.5802 576.374 30.6469C576.991 30.7136 577.533 30.8053 578 30.9221V40.3766C577.499 40.2265 576.807 40.0931 575.924 39.9764C575.04 39.8597 574.231 39.8013 573.498 39.8013C571.93 39.8013 570.529 40.1432 569.296 40.8268C568.078 41.4938 567.111 42.4276 566.394 43.6282C565.694 44.8288 565.344 46.2128 565.344 47.7802V69.5156H554.688Z" fill="#181818"/>
<path d="M533.624 70.2663C529.672 70.2663 526.27 69.4659 523.419 67.8651C520.584 66.2477 518.4 63.9632 516.866 61.0118C515.331 58.0437 514.564 54.5337 514.564 50.4817C514.564 46.5298 515.331 43.0615 516.866 40.0767C518.4 37.092 520.559 34.7658 523.344 33.0984C526.145 31.4309 529.43 30.5972 533.198 30.5972C535.733 30.5972 538.092 31.0057 540.277 31.8228C542.478 32.6231 544.396 33.8321 546.03 35.4495C547.68 37.067 548.964 39.1013 549.881 41.5524C550.799 43.987 551.257 46.8383 551.257 50.1066V53.033H518.816V46.4298H541.227C541.227 44.8957 540.894 43.5367 540.227 42.3528C539.56 41.1689 538.634 40.2435 537.45 39.5765C536.283 38.8928 534.924 38.551 533.374 38.551C531.756 38.551 530.322 38.9262 529.071 39.6765C527.838 40.4102 526.87 41.4024 526.17 42.653C525.47 43.8869 525.111 45.2626 525.095 46.78V53.058C525.095 54.9589 525.445 56.6014 526.145 57.9854C526.862 59.3694 527.871 60.4365 529.172 61.1869C530.472 61.9373 532.015 62.3124 533.799 62.3124C534.983 62.3124 536.066 62.1457 537.05 61.8122C538.034 61.4787 538.876 60.9785 539.577 60.3115C540.277 59.6445 540.81 58.8274 541.177 57.8603L551.032 58.5106C550.532 60.8784 549.506 62.9461 547.956 64.7136C546.421 66.4644 544.437 67.8318 542.003 68.8156C539.585 69.7827 536.792 70.2663 533.624 70.2663Z" fill="#181818"/>
<path d="M486.339 47.305V69.5157H475.684V18.291H486.039V37.8755H486.489C487.356 35.6077 488.757 33.8318 490.691 32.5479C492.626 31.2473 495.052 30.5969 497.97 30.5969C500.638 30.5969 502.964 31.1806 504.948 32.3478C506.949 33.4983 508.5 35.1575 509.6 37.3252C510.718 39.4762 511.268 42.0525 511.251 45.0539V69.5157H500.596V46.9548C500.613 44.587 500.012 42.7445 498.795 41.4272C497.595 40.1099 495.911 39.4512 493.743 39.4512C492.292 39.4512 491.008 39.7597 489.891 40.3767C488.79 40.9936 487.923 41.8941 487.29 43.078C486.673 44.2452 486.356 45.6542 486.339 47.305Z" fill="#181818"/>
<path d="M455.226 70.2663C451.29 70.2663 447.905 69.4325 445.071 67.7651C442.253 66.0809 440.085 63.7465 438.568 60.7617C437.067 57.7769 436.316 54.3419 436.316 50.4567C436.316 46.5215 437.075 43.0698 438.592 40.1017C440.127 37.117 442.303 34.7909 445.121 33.1234C447.939 31.4392 451.29 30.5972 455.176 30.5972C458.527 30.5972 461.462 31.2058 463.98 32.423C466.498 33.6403 468.49 35.3495 469.958 37.5505C471.425 39.7516 472.234 42.3362 472.384 45.3043H462.329C462.045 43.3867 461.295 41.8442 460.078 40.677C458.877 39.4931 457.302 38.9012 455.351 38.9012C453.7 38.9012 452.257 39.3514 451.023 40.2518C449.806 41.1356 448.856 42.4279 448.172 44.1287C447.488 45.8295 447.147 47.8888 447.147 50.3067C447.147 52.7578 447.48 54.8422 448.147 56.5597C448.831 58.2772 449.79 59.5861 451.023 60.4866C452.257 61.387 453.7 61.8372 455.351 61.8372C456.568 61.8372 457.66 61.5871 458.627 61.0869C459.611 60.5866 460.42 59.8613 461.053 58.9108C461.704 57.9437 462.129 56.7848 462.329 55.4341H472.384C472.217 58.3689 471.417 60.9535 469.983 63.1879C468.565 65.4056 466.606 67.1398 464.105 68.3904C461.604 69.641 458.644 70.2663 455.226 70.2663Z" fill="#181818"/>
<path d="M434.861 31.097V39.1009H411.725V31.097H434.861ZM416.977 21.8926H427.632V57.7098C427.632 58.6936 427.782 59.4607 428.082 60.0109C428.383 60.5445 428.8 60.9197 429.333 61.1365C429.883 61.3533 430.517 61.4616 431.234 61.4616C431.734 61.4616 432.235 61.42 432.735 61.3366C433.235 61.2365 433.618 61.1615 433.885 61.1115L435.561 69.0403C435.028 69.207 434.277 69.3988 433.31 69.6156C432.343 69.849 431.167 69.9907 429.783 70.0408C427.215 70.1408 424.964 69.799 423.03 69.0153C421.112 68.2316 419.62 67.0143 418.553 65.3635C417.486 63.7127 416.96 61.6284 416.977 59.1105V21.8926Z" fill="#181818"/>
<path d="M388.046 70.2413C385.595 70.2413 383.41 69.8161 381.493 68.9657C379.575 68.0986 378.058 66.823 376.94 65.1388C375.84 63.438 375.29 61.3203 375.29 58.7857C375.29 56.6514 375.681 54.8589 376.465 53.4082C377.249 51.9575 378.316 50.7902 379.667 49.9065C381.017 49.0227 382.551 48.3557 384.269 47.9055C386.003 47.4553 387.821 47.1385 389.722 46.955C391.956 46.7216 393.757 46.5048 395.124 46.3047C396.491 46.088 397.484 45.7711 398.101 45.3543C398.718 44.9374 399.026 44.3204 399.026 43.5034V43.3533C399.026 41.7692 398.526 40.5436 397.525 39.6765C396.541 38.8095 395.141 38.3759 393.323 38.3759C391.406 38.3759 389.88 38.8011 388.746 39.6515C387.612 40.4853 386.862 41.5358 386.495 42.803L376.64 42.0027C377.14 39.6682 378.124 37.6506 379.592 35.9497C381.059 34.2322 382.952 32.9149 385.269 31.9978C387.604 31.0641 390.305 30.5972 393.373 30.5972C395.508 30.5972 397.55 30.8473 399.501 31.3475C401.469 31.8478 403.211 32.6231 404.729 33.6736C406.263 34.7242 407.472 36.0748 408.355 37.7256C409.239 39.3597 409.681 41.319 409.681 43.6034V69.5159H399.576V64.1883H399.276C398.659 65.3889 397.834 66.4478 396.8 67.3649C395.766 68.2653 394.524 68.974 393.073 69.4909C391.622 69.9911 389.947 70.2413 388.046 70.2413ZM391.097 62.8877C392.665 62.8877 394.049 62.5792 395.249 61.9623C396.45 61.3286 397.392 60.4782 398.076 59.411C398.759 58.3439 399.101 57.1349 399.101 55.7843V51.7073C398.768 51.9241 398.309 52.1242 397.725 52.3076C397.158 52.4744 396.516 52.6328 395.799 52.7829C395.082 52.9162 394.365 53.0413 393.648 53.158C392.931 53.2581 392.281 53.3498 391.697 53.4332C390.447 53.6166 389.355 53.9084 388.421 54.3086C387.487 54.7088 386.762 55.2507 386.245 55.9344C385.728 56.6014 385.469 57.4351 385.469 58.4356C385.469 59.8863 385.995 60.9951 387.045 61.7622C388.112 62.5125 389.463 62.8877 391.097 62.8877Z" fill="#181818"/>
<path d="M323.491 69.5157L308.834 18.291H320.665L329.144 53.8832H329.569L338.923 18.291H349.053L358.383 53.9582H358.833L367.312 18.291H379.143L364.486 69.5157H353.931L344.176 36.0246H343.776L334.046 69.5157H323.491Z" fill="#181818"/>
<path d="M277.915 70.2663C273.963 70.2663 270.562 69.4659 267.71 67.8651C264.876 66.2477 262.691 63.9632 261.157 61.0118C259.623 58.0437 258.856 54.5337 258.856 50.4817C258.856 46.5298 259.623 43.0615 261.157 40.0767C262.691 37.092 264.851 34.7658 267.635 33.0984C270.437 31.4309 273.721 30.5972 277.49 30.5972C280.024 30.5972 282.384 31.0057 284.568 31.8228C286.769 32.6231 288.687 33.8321 290.321 35.4495C291.972 37.067 293.256 39.1013 294.173 41.5524C295.09 43.987 295.549 46.8383 295.549 50.1066V53.033H263.108V46.4298H285.519C285.519 44.8957 285.185 43.5367 284.518 42.3528C283.851 41.1689 282.926 40.2435 281.742 39.5765C280.575 38.8928 279.216 38.551 277.665 38.551C276.048 38.551 274.614 38.9262 273.363 39.6765C272.129 40.4102 271.162 41.4024 270.462 42.653C269.761 43.8869 269.403 45.2626 269.386 46.78V53.058C269.386 54.9589 269.736 56.6014 270.437 57.9854C271.154 59.3694 272.162 60.4365 273.463 61.1869C274.764 61.9373 276.306 62.3124 278.09 62.3124C279.274 62.3124 280.358 62.1457 281.342 61.8122C282.326 61.4787 283.168 60.9785 283.868 60.3115C284.568 59.6445 285.102 58.8274 285.469 57.8603L295.324 58.5106C294.823 60.8784 293.798 62.9461 292.247 64.7136C290.713 66.4644 288.729 67.8318 286.294 68.8156C283.876 69.7827 281.083 70.2663 277.915 70.2663Z" fill="#181818"/>
<path d="M233.308 70.141C230.39 70.141 227.747 69.3906 225.379 67.8899C223.028 66.3725 221.16 64.1464 219.776 61.2117C218.409 58.2603 217.725 54.6419 217.725 50.3565C217.725 45.9543 218.434 42.2942 219.851 39.3762C221.268 36.4414 223.153 34.2487 225.504 32.798C227.872 31.3306 230.465 30.5969 233.283 30.5969C235.434 30.5969 237.226 30.9638 238.66 31.6975C240.111 32.4145 241.278 33.3149 242.162 34.3988C243.062 35.466 243.746 36.5165 244.213 37.5503H244.538V18.291H255.168V69.5157H244.663V63.3627H244.213C243.713 64.4299 243.004 65.4888 242.087 66.5393C241.186 67.5731 240.011 68.4318 238.56 69.1155C237.126 69.7992 235.375 70.141 233.308 70.141ZM236.684 61.6619C238.402 61.6619 239.852 61.195 241.036 60.2612C242.237 59.3108 243.154 57.9851 243.788 56.2843C244.438 54.5835 244.763 52.5909 244.763 50.3064C244.763 48.022 244.446 46.0377 243.813 44.3536C243.179 42.6694 242.262 41.3688 241.061 40.4517C239.861 39.5346 238.402 39.076 236.684 39.076C234.933 39.076 233.458 39.5513 232.257 40.5017C231.057 41.4522 230.148 42.7695 229.531 44.4536C228.914 46.1378 228.605 48.0887 228.605 50.3064C228.605 52.5408 228.914 54.5168 229.531 56.2343C230.164 57.9351 231.073 59.2691 232.257 60.2362C233.458 61.1867 234.933 61.6619 236.684 61.6619Z" fill="#181818"/>
<path d="M196.835 70.2663C192.95 70.2663 189.59 69.4409 186.755 67.7901C183.937 66.1226 181.761 63.8048 180.227 60.8367C178.693 57.852 177.926 54.392 177.926 50.4567C177.926 46.4882 178.693 43.0198 180.227 40.0517C181.761 37.0669 183.937 34.7492 186.755 33.0984C189.59 31.4309 192.95 30.5972 196.835 30.5972C200.72 30.5972 204.072 31.4309 206.89 33.0984C209.724 34.7492 211.909 37.0669 213.443 40.0517C214.977 43.0198 215.744 46.4882 215.744 50.4567C215.744 54.392 214.977 57.852 213.443 60.8367C211.909 63.8048 209.724 66.1226 206.89 67.7901C204.072 69.4409 200.72 70.2663 196.835 70.2663ZM196.885 62.0123C198.652 62.0123 200.128 61.5121 201.312 60.5116C202.496 59.4944 203.388 58.1104 203.988 56.3596C204.605 54.6087 204.914 52.6161 204.914 50.3817C204.914 48.1473 204.605 46.1547 203.988 44.4038C203.388 42.653 202.496 41.269 201.312 40.2518C200.128 39.2347 198.652 38.7261 196.885 38.7261C195.101 38.7261 193.6 39.2347 192.383 40.2518C191.182 41.269 190.273 42.653 189.656 44.4038C189.056 46.1547 188.756 48.1473 188.756 50.3817C188.756 52.6161 189.056 54.6087 189.656 56.3596C190.273 58.1104 191.182 59.4944 192.383 60.5116C193.6 61.5121 195.101 62.0123 196.885 62.0123Z" fill="#181818"/>
<path d="M118.749 18.291H132.105L146.212 52.7076H146.812L160.919 18.291H174.275V69.5157H163.77V36.1746H163.345L150.089 69.2656H142.935L129.679 36.0496H129.254V69.5157H118.749V18.291Z" fill="#181818"/>
</g>
<defs>
<clipPath id="clip0_515_90">
<rect width="578" height="89" fill="white"/>
</clipPath>
</defs>
</svg>
