<svg width="817" height="123" viewBox="0 0 817 123" fill="none" xmlns="http://www.w3.org/2000/svg">
<path d="M782.937 94.3466V44.2259H800.427V53.754H800.949C801.862 50.2299 803.309 47.6521 805.289 46.0205C807.29 44.389 809.628 43.5732 812.304 43.5732C813.087 43.5732 813.86 43.6385 814.621 43.769C815.404 43.8778 816.155 44.0409 816.872 44.2585V59.6275C815.981 59.323 814.882 59.0946 813.577 58.9423C812.271 58.79 811.151 58.7139 810.216 58.7139C808.454 58.7139 806.866 59.1163 805.452 59.9212C804.059 60.7044 802.961 61.8138 802.156 63.2495C801.351 64.6635 800.949 66.3277 800.949 68.242V94.3466H782.937Z" fill="#181818"/>
<path d="M753.805 95.2603C748.453 95.2603 743.842 94.2378 739.97 92.193C736.119 90.1264 733.15 87.1678 731.061 83.3174C728.995 79.4452 727.961 74.8117 727.961 69.4168C727.961 64.2393 729.006 59.7146 731.094 55.8424C733.182 51.9702 736.13 48.9573 739.937 46.8037C743.744 44.6501 748.236 43.5732 753.413 43.5732C757.199 43.5732 760.625 44.1606 763.692 45.3353C766.759 46.51 769.381 48.2177 771.556 50.4583C773.731 52.6772 775.406 55.3747 776.581 58.5507C777.756 61.7268 778.343 65.3053 778.343 69.2862V73.463H733.574V63.5432H761.767C761.745 62.1075 761.375 60.8458 760.657 59.7581C759.961 58.6486 759.015 57.7893 757.819 57.1802C756.644 56.5494 755.306 56.2339 753.805 56.2339C752.347 56.2339 751.01 56.5494 749.791 57.1802C748.573 57.7893 747.594 58.6377 746.855 59.7254C746.137 60.8131 745.756 62.0857 745.713 63.5432V74.2461C745.713 75.8559 746.05 77.2916 746.724 78.5533C747.398 79.8151 748.367 80.8049 749.628 81.5227C750.89 82.2406 752.413 82.5996 754.197 82.5996C755.437 82.5996 756.568 82.4255 757.59 82.0775C758.634 81.7294 759.526 81.2291 760.266 80.5765C761.005 79.9021 761.549 79.0972 761.897 78.1618H778.343C777.778 81.6424 776.44 84.6662 774.33 87.2331C772.22 89.7783 769.424 91.7579 765.944 93.1719C762.485 94.5641 758.438 95.2603 753.805 95.2603Z" fill="#181818"/>
<path d="M691.153 66.1533V94.3462H673.141V27.5186H690.501V53.7536H691.023C692.154 50.5558 694.036 48.065 696.668 46.2812C699.3 44.4756 702.465 43.5729 706.163 43.5729C709.709 43.5729 712.787 44.3777 715.398 45.9875C718.03 47.5973 720.064 49.8162 721.5 52.6442C722.957 55.4722 723.675 58.7135 723.653 62.3681V94.3462H705.641V66.1533C705.663 63.6734 705.043 61.7264 703.781 60.3124C702.541 58.8984 700.768 58.1914 698.463 58.1914C697.005 58.1914 695.722 58.5177 694.612 59.1703C693.524 59.8012 692.676 60.7148 692.067 61.9113C691.48 63.086 691.175 64.5 691.153 66.1533Z" fill="#181818"/>
<path d="M644.319 95.2603C638.881 95.2603 634.226 94.1834 630.353 92.0298C626.481 89.8544 623.512 86.8307 621.445 82.9585C619.379 79.0646 618.345 74.5506 618.345 69.4168C618.345 64.2829 619.379 59.7798 621.445 55.9076C623.512 52.0137 626.481 48.9899 630.353 46.8363C634.226 44.6609 638.881 43.5732 644.319 43.5732C649.236 43.5732 653.488 44.4651 657.078 46.249C660.689 48.011 663.484 50.5127 665.464 53.754C667.444 56.9736 668.444 60.7587 668.466 65.1095H651.759C651.52 62.4773 650.758 60.4759 649.475 59.1054C648.213 57.7132 646.582 57.0171 644.58 57.0171C643.014 57.0171 641.644 57.4739 640.469 58.3876C639.294 59.2795 638.38 60.6391 637.728 62.4664C637.075 64.272 636.749 66.5453 636.749 69.2862C636.749 72.0272 637.075 74.3113 637.728 76.1387C638.38 77.9442 639.294 79.3039 640.469 80.2175C641.644 81.1094 643.014 81.5554 644.58 81.5554C645.907 81.5554 647.082 81.2508 648.104 80.6417C649.127 80.0108 649.953 79.0972 650.584 77.9007C651.237 76.6825 651.629 75.2033 651.759 73.463H668.466C668.401 77.879 667.389 81.7294 665.431 85.0142C663.473 88.2773 660.7 90.8007 657.111 92.5845C653.543 94.3684 649.279 95.2603 644.319 95.2603Z" fill="#181818"/>
<path d="M616.118 44.2259V57.2781H583.096V44.2259H616.118ZM589.491 32.2178H607.503V78.2271C607.503 78.9232 607.623 79.5105 607.862 79.9891C608.102 80.4459 608.471 80.794 608.972 81.0333C609.472 81.2508 610.114 81.3596 610.897 81.3596C611.441 81.3596 612.072 81.2943 612.79 81.1638C613.529 81.0333 614.073 80.9245 614.421 80.8375L617.032 93.4982C616.227 93.7375 615.074 94.0312 613.573 94.3792C612.093 94.7273 610.331 94.9557 608.287 95.0645C604.153 95.282 600.684 94.8578 597.877 93.7919C595.071 92.7042 592.961 90.9965 591.547 88.6689C590.133 86.3412 589.448 83.4262 589.491 79.9238V32.2178Z" fill="#181818"/>
<path d="M548.661 95.1297C545.463 95.1297 542.635 94.6076 540.177 93.5635C537.741 92.4975 535.826 90.8877 534.434 88.7341C533.042 86.5805 532.346 83.8395 532.346 80.5112C532.346 77.7702 532.813 75.4317 533.749 73.4956C534.684 71.5377 535.989 69.9388 537.665 68.6989C539.34 67.4589 541.287 66.5126 543.505 65.86C545.746 65.2074 548.161 64.7832 550.749 64.5874C553.556 64.3699 555.807 64.1088 557.504 63.8043C559.223 63.478 560.462 63.032 561.224 62.4664C561.985 61.8791 562.366 61.1068 562.366 60.1496V60.0191C562.366 58.7139 561.866 57.7132 560.865 57.0171C559.864 56.321 558.581 55.9729 557.015 55.9729C555.296 55.9729 553.893 56.3536 552.805 57.115C551.739 57.8546 551.097 58.9967 550.88 60.5412H534.304C534.521 57.4957 535.489 54.6894 537.208 52.1225C538.948 49.5338 541.482 47.4672 544.811 45.9227C548.139 44.3564 552.294 43.5732 557.276 43.5732C560.865 43.5732 564.085 43.9974 566.934 44.8458C569.784 45.6725 572.21 46.8363 574.211 48.3373C576.212 49.8166 577.735 51.5569 578.779 53.5582C579.845 55.5378 580.378 57.6915 580.378 60.0191V94.3466H563.541V87.2984H563.149C562.148 89.1692 560.93 90.6811 559.494 91.834C558.08 92.987 556.46 93.8245 554.632 94.3466C552.827 94.8687 550.836 95.1297 548.661 95.1297ZM554.535 83.7743C555.905 83.7743 557.189 83.4915 558.385 82.9259C559.603 82.3603 560.593 81.5445 561.354 80.4786C562.116 79.4126 562.496 78.1183 562.496 76.5955V72.4188C562.018 72.6146 561.507 72.7995 560.963 72.9735C560.441 73.1475 559.875 73.3107 559.266 73.463C558.679 73.6152 558.048 73.7566 557.373 73.8872C556.721 74.0177 556.036 74.1373 555.318 74.2461C553.925 74.4636 552.783 74.8226 551.892 75.3229C551.021 75.8015 550.369 76.3997 549.934 77.1176C549.52 77.8137 549.314 78.5968 549.314 79.467C549.314 80.8592 549.803 81.9252 550.782 82.6648C551.761 83.4044 553.012 83.7743 554.535 83.7743Z" fill="#181818"/>
<path d="M459.489 94.3462L439.78 27.5186H460.011L469.148 68.6332H469.67L480.503 27.5186H496.427L507.261 68.7638H507.783L516.919 27.5186H537.15L517.441 94.3462H500.082L488.726 57.0167H488.204L476.849 94.3462H459.489Z" fill="#181818"/>
<path d="M398.101 95.2603C392.75 95.2603 388.138 94.2378 384.266 92.193C380.415 90.1264 377.446 87.1678 375.358 83.3174C373.291 79.4452 372.258 74.8117 372.258 69.4168C372.258 64.2393 373.302 59.7146 375.39 55.8424C377.479 51.9702 380.426 48.9573 384.233 46.8037C388.04 44.6501 392.532 43.5732 397.71 43.5732C401.495 43.5732 404.921 44.1606 407.988 45.3353C411.056 46.51 413.677 48.2177 415.852 50.4583C418.028 52.6772 419.703 55.3747 420.878 58.5507C422.052 61.7268 422.64 65.3053 422.64 69.2862V73.463H377.87V63.5432H406.063C406.041 62.1075 405.672 60.8458 404.954 59.7581C404.258 58.6486 403.311 57.7893 402.115 57.1802C400.94 56.5494 399.602 56.2339 398.101 56.2339C396.644 56.2339 395.306 56.5494 394.088 57.1802C392.87 57.7893 391.891 58.6377 391.151 59.7254C390.433 60.8131 390.052 62.0857 390.009 63.5432V74.2461C390.009 75.8559 390.346 77.2916 391.02 78.5533C391.695 79.8151 392.663 80.8049 393.925 81.5227C395.186 82.2406 396.709 82.5996 398.493 82.5996C399.733 82.5996 400.864 82.4255 401.886 82.0775C402.931 81.7294 403.823 81.2291 404.562 80.5765C405.302 79.9021 405.846 79.0972 406.194 78.1618H422.64C422.074 81.6424 420.736 84.6662 418.626 87.2331C416.516 89.7783 413.721 91.7579 410.24 93.1719C406.781 94.5641 402.735 95.2603 398.101 95.2603Z" fill="#181818"/>
<path d="M335.76 94.9988C332.192 94.9988 328.907 94.0634 325.905 92.1926C322.925 90.3218 320.532 87.4829 318.726 83.676C316.943 79.8691 316.051 75.0724 316.051 69.2858C316.051 63.2383 316.986 58.3219 318.857 54.5368C320.75 50.7516 323.186 47.978 326.166 46.2159C329.168 44.4539 332.323 43.5729 335.629 43.5729C338.109 43.5729 340.285 44.0079 342.155 44.8781C344.026 45.7265 345.592 46.8686 346.854 48.3043C348.116 49.7183 349.073 51.2737 349.726 52.9705H349.987V27.5186H367.999V94.3462H350.117V86.1233H349.726C349.03 87.8201 348.029 89.3428 346.724 90.6916C345.44 92.0186 343.874 93.0736 342.025 93.8568C340.197 94.6181 338.109 94.9988 335.76 94.9988ZM342.416 81.1634C344.07 81.1634 345.484 80.6848 346.658 79.7277C347.855 78.7487 348.768 77.3783 349.399 75.6162C350.052 73.8324 350.378 71.7223 350.378 69.2858C350.378 66.8059 350.052 64.6849 349.399 62.9229C348.768 61.139 347.855 59.7794 346.658 58.844C345.484 57.8869 344.07 57.4083 342.416 57.4083C340.763 57.4083 339.349 57.8869 338.174 58.844C337.021 59.7794 336.13 61.139 335.499 62.9229C334.89 64.6849 334.585 66.8059 334.585 69.2858C334.585 71.7658 334.89 73.8976 335.499 75.6815C336.13 77.4435 337.021 78.8031 338.174 79.7603C339.349 80.6957 340.763 81.1634 342.416 81.1634Z" fill="#181818"/>
<path d="M287.09 95.2603C281.652 95.2603 276.996 94.1834 273.124 92.0298C269.252 89.8544 266.283 86.8307 264.216 82.9585C262.15 79.0646 261.116 74.5506 261.116 69.4168C261.116 64.2829 262.15 59.7798 264.216 55.9076C266.283 52.0137 269.252 48.9899 273.124 46.8363C276.996 44.6609 281.652 43.5732 287.09 43.5732C292.529 43.5732 297.184 44.6609 301.056 46.8363C304.928 48.9899 307.898 52.0137 309.964 55.9076C312.031 59.7798 313.064 64.2829 313.064 69.4168C313.064 74.5506 312.031 79.0646 309.964 82.9585C307.898 86.8307 304.928 89.8544 301.056 92.0298C297.184 94.1834 292.529 95.2603 287.09 95.2603ZM287.221 81.9469C288.744 81.9469 290.06 81.4357 291.169 80.4133C292.279 79.3909 293.138 77.9334 293.747 76.0408C294.356 74.1482 294.661 71.8967 294.661 69.2862C294.661 66.654 294.356 64.4025 293.747 62.5317C293.138 60.6391 292.279 59.1816 291.169 58.1592C290.06 57.1367 288.744 56.6255 287.221 56.6255C285.611 56.6255 284.23 57.1367 283.077 58.1592C281.924 59.1816 281.043 60.6391 280.434 62.5317C279.824 64.4025 279.52 66.654 279.52 69.2862C279.52 71.8967 279.824 74.1482 280.434 76.0408C281.043 77.9334 281.924 79.3909 283.077 80.4133C284.23 81.4357 285.611 81.9469 287.221 81.9469Z" fill="#181818"/>
<path d="M179.833 27.5186H202.413L217.945 65.3702H218.728L234.261 27.5186H256.841V94.3462H239.09V55.7115H238.568L223.688 93.8241H212.985L198.106 55.4504H197.584V94.3462H179.833V27.5186Z" fill="#181818"/>
<path fill-rule="evenodd" clip-rule="evenodd" d="M97.0683 0.469727H25.72C11.7338 0.469727 0.474121 11.7294 0.474121 25.7156V97.0636C0.474121 111.05 11.7338 122.309 25.72 122.309H97.0683C111.054 122.309 122.314 111.05 122.314 97.0636V25.7156C122.314 11.7294 111.054 0.469727 97.0683 0.469727ZM42.5688 42.5641C47.5871 37.5459 54.3933 34.7267 61.4902 34.7268C68.587 34.7268 75.3932 37.5461 80.4114 42.5643C85.4296 47.5825 88.2488 54.3886 88.2489 61.4854C88.2489 68.5823 85.4297 75.3886 80.4115 80.4069C75.3933 85.4252 68.5871 88.2445 61.4902 88.2445C57.9762 88.2446 54.4965 87.5524 51.2499 86.2077C48.0033 84.8629 45.0534 82.8919 42.5686 80.407C40.0838 77.9222 38.1127 74.9723 36.768 71.7257C35.4232 68.4791 34.7311 64.9995 34.7311 61.4854C34.7312 54.3885 37.5505 47.5823 42.5688 42.5641ZM53.624 51.1557C53.6288 47.8608 54.4252 44.6152 55.946 41.6923C51.6256 42.9015 47.819 45.4901 45.1065 49.0636C42.3939 52.6371 40.9241 56.9995 40.921 61.4859C40.9211 64.1871 41.4531 66.8618 42.4869 69.3574C43.5206 71.853 45.0358 74.1205 46.9458 76.0305C48.8559 77.9405 51.1235 79.4555 53.6191 80.4891C56.1147 81.5228 58.7895 82.0547 61.4907 82.0546C65.2572 82.0516 68.9506 81.0143 72.1681 79.056C75.3856 77.0977 78.0035 74.2935 79.7365 70.9493C77.9327 71.4592 76.0676 71.7201 74.1932 71.7249C71.492 71.7249 68.8172 71.1929 66.3216 70.1592C63.826 69.1255 61.5585 67.6104 59.6484 65.7004C57.7384 63.7903 56.2233 61.5228 55.1896 59.0272C54.1559 56.5316 53.6239 53.8569 53.624 51.1557ZM61.3926 13.7967C60.9422 13.7967 60.4962 13.8854 60.0801 14.0578C59.664 14.2301 59.2859 14.4828 58.9674 14.8012C58.6489 15.1197 58.3963 15.4978 58.224 15.9139C58.0516 16.33 57.9629 16.776 57.9629 17.2264V26.1787C57.9629 26.6291 58.0516 27.0751 58.224 27.4912C58.3963 27.9073 58.649 28.2854 58.9674 28.6038C59.2859 28.9223 59.664 29.1749 60.0801 29.3473C60.4962 29.5197 60.9422 29.6084 61.3926 29.6084C62.3022 29.6084 63.1745 29.247 63.8177 28.6038C64.4609 27.9606 64.8223 27.0883 64.8223 26.1787V17.2264C64.8223 16.3168 64.4609 15.4444 63.8177 14.8012C63.1745 14.1581 62.3022 13.7967 61.3926 13.7967ZM60.0801 93.4294C60.4962 93.257 60.9422 93.1683 61.3926 93.1683C62.3022 93.1683 63.1745 93.5297 63.8177 94.1729C64.4609 94.816 64.8223 95.6884 64.8223 96.598V105.554C64.8223 106.463 64.4609 107.336 63.8177 107.979C63.1745 108.622 62.3022 108.983 61.3926 108.983C60.483 108.983 59.6106 108.622 58.9674 107.979C58.3242 107.336 57.9629 106.463 57.9629 105.554V96.598C57.9629 96.1476 58.0516 95.7016 58.224 95.2855C58.3963 94.8694 58.6489 94.4913 58.9674 94.1729C59.2859 93.8544 59.664 93.6017 60.0801 93.4294ZM90.1975 27.7346L83.8681 34.0673C83.5496 34.3858 83.2969 34.7639 83.1245 35.1801C82.9521 35.5962 82.8633 36.0423 82.8633 36.4927C82.8633 36.9432 82.9521 37.3892 83.1245 37.8054C83.2969 38.2216 83.5496 38.5997 83.8681 38.9182C84.5112 39.5605 85.3829 39.9213 86.2919 39.9213C87.2008 39.9213 88.0725 39.5605 88.7156 38.9182L95.0484 32.5854C95.3669 32.2669 95.6196 31.8888 95.792 31.4726C95.9644 31.0565 96.0532 30.6104 96.0532 30.16C96.0532 29.7095 95.9644 29.2635 95.792 28.8473C95.6196 28.4312 95.3669 28.053 95.0484 27.7346C94.7299 27.416 94.3518 27.1633 93.9356 26.9909C93.5194 26.8185 93.0734 26.7298 92.6229 26.7298C92.1725 26.7298 91.7264 26.8185 91.3103 26.9909C90.8941 27.1633 90.516 27.416 90.1975 27.7346ZM27.7409 90.1951L34.0702 83.8624C34.3887 83.5438 34.7668 83.2911 35.183 83.1187C35.5992 82.9463 36.0452 82.8576 36.4957 82.8576C36.9461 82.8576 37.3922 82.9463 37.8083 83.1187C38.2245 83.2911 38.6026 83.5438 38.9211 83.8624C39.2396 84.1808 39.4923 84.559 39.6647 84.9751C39.8372 85.3913 39.9259 85.8373 39.9259 86.2878C39.9259 86.7382 39.8372 87.1843 39.6647 87.6004C39.4923 88.0166 39.2396 88.3947 38.9211 88.7132L32.5917 95.046C32.2732 95.3645 31.8951 95.6172 31.4789 95.7896C31.0628 95.962 30.6167 96.0508 30.1663 96.0508C29.7158 96.0508 29.2698 95.962 28.8536 95.7896C28.4375 95.6172 28.0593 95.3645 27.7409 95.046C27.4223 94.7275 27.1696 94.3493 26.9972 93.9332C26.8248 93.517 26.7361 93.071 26.7361 92.6205C26.7361 92.1701 26.8248 91.724 26.9972 91.3079C27.1696 90.8917 27.4223 90.5136 27.7409 90.1951ZM96.6048 57.9607C95.6952 57.9607 94.8228 58.322 94.1797 58.9652C93.5365 59.6084 93.1751 60.4807 93.1751 61.3903C93.1751 62.2999 93.5365 63.1723 94.1797 63.8155C94.8228 64.4587 95.6952 64.82 96.6048 64.82H105.56C106.011 64.82 106.457 64.7313 106.873 64.559C107.289 64.3866 107.667 64.134 107.986 63.8155C108.304 63.497 108.557 63.1189 108.729 62.7028C108.901 62.2867 108.99 61.8407 108.99 61.3903C108.99 60.4807 108.629 59.6084 107.986 58.9652C107.342 58.322 106.47 57.9607 105.56 57.9607H96.6048ZM14.804 58.9652C15.4472 58.322 16.3195 57.9607 17.2291 57.9607H26.1848C27.0944 57.9607 27.9667 58.322 28.6099 58.9652C29.2531 59.6084 29.6145 60.4807 29.6145 61.3903C29.6145 61.8407 29.5258 62.2867 29.3534 62.7028C29.181 63.1189 28.9284 63.497 28.6099 63.8155C28.2915 64.134 27.9134 64.3866 27.4973 64.559C27.0812 64.7313 26.6352 64.82 26.1848 64.82H17.2291C16.3195 64.82 15.4472 64.4587 14.804 63.8155C14.1608 63.1723 13.7994 62.2999 13.7994 61.3903C13.7994 60.4807 14.1608 59.6084 14.804 58.9652ZM83.8681 83.8617C83.5496 84.1802 83.2969 84.5583 83.1245 84.9744C82.9521 85.3906 82.8633 85.8367 82.8633 86.2871C82.8633 86.7376 82.9521 87.1836 83.1245 87.5998C83.2969 88.0159 83.5496 88.394 83.8681 88.7125L90.1975 95.0453C90.516 95.3638 90.8941 95.6165 91.3103 95.7889C91.7264 95.9613 92.1725 96.0501 92.6229 96.0501C93.0734 96.0501 93.5194 95.9613 93.9356 95.7889C94.3518 95.6165 94.7299 95.3638 95.0484 95.0453C95.3669 94.7268 95.6196 94.3487 95.792 93.9325C95.9644 93.5164 96.0532 93.0703 96.0532 92.6199C96.0532 92.1694 95.9644 91.7234 95.792 91.3072C95.6196 90.8911 95.3669 90.5129 95.0484 90.1944L88.7156 83.8617C88.0725 83.2194 87.2008 82.8586 86.2919 82.8586C85.3829 82.8586 84.5112 83.2194 83.8681 83.8617ZM26.9972 28.8473C27.1696 28.4312 27.4223 28.053 27.7409 27.7346C28.0593 27.416 28.4375 27.1633 28.8536 26.9909C29.2698 26.8185 29.7158 26.7298 30.1663 26.7298C30.6167 26.7298 31.0628 26.8185 31.4789 26.9909C31.8951 27.1633 32.2732 27.416 32.5917 27.7346L38.9211 34.0673C39.2396 34.3858 39.4923 34.7639 39.6647 35.1801C39.8372 35.5962 39.9259 36.0423 39.9259 36.4927C39.9259 36.9432 39.8372 37.3892 39.6647 37.8054C39.4923 38.2216 39.2396 38.5997 38.9211 38.9182C38.6026 39.2367 38.2245 39.4894 37.8083 39.6618C37.3922 39.8342 36.9461 39.923 36.4957 39.923C36.0452 39.923 35.5992 39.8342 35.183 39.6618C34.7669 39.4894 34.3887 39.2367 34.0702 38.9182L27.7409 32.5854C27.4223 32.2669 27.1696 31.8888 26.9972 31.4726C26.8248 31.0565 26.7361 30.6104 26.7361 30.16C26.7361 29.7095 26.8248 29.2635 26.9972 28.8473Z" fill="#ECD827"/>
</svg>
