<svg width="578" height="89" viewBox="0 0 578 89" fill="none" xmlns="http://www.w3.org/2000/svg">
<g clip-path="url(#clip0_515_56)">
<path d="M44.2783 88.5566C68.7326 88.5566 88.5566 68.7326 88.5566 44.2783C88.5566 19.8241 68.7326 0 44.2783 0C19.8241 0 0 19.8241 0 44.2783C0 68.7326 19.8241 88.5566 44.2783 88.5566Z" fill="#EF6643"/>
<path d="M88.5568 44.2784C88.5568 42.9835 88.5011 41.7016 88.3923 40.4349L77.0237 29.0664L12.1504 60.1297L40.4107 88.39C41.6852 88.5004 42.9754 88.5568 44.2785 88.5568C68.7327 88.5568 88.5568 68.7327 88.5568 44.2784Z" fill="#EC4F27"/>
<path d="M44.2783 66.6472H27.9325C15.5786 66.6472 5.56396 56.6325 5.56396 44.2787C5.56396 31.9248 15.5786 21.9102 27.9325 21.9102H44.2783C56.6319 21.9102 56.6319 66.6472 44.2783 66.6472Z" fill="#565656"/>
<path d="M60.6241 21.9102H44.2783V66.647H60.6241C72.9779 66.647 82.9926 56.6323 82.9926 44.2785C82.9926 31.9248 72.9779 21.9102 60.6241 21.9102Z" fill="#353535"/>
<path d="M26.1574 55.9343C32.5945 55.9343 37.8128 50.716 37.8128 44.2789C37.8128 37.8418 32.5945 32.6235 26.1574 32.6235C19.7203 32.6235 14.502 37.8418 14.502 44.2789C14.502 50.716 19.7203 55.9343 26.1574 55.9343Z" fill="white"/>
<path d="M61.2246 44.2793C61.2246 39.7719 64.8786 36.1179 69.386 36.1179C70.0222 36.1179 70.6416 36.1907 71.2359 36.3285C69.1084 34.0491 66.0775 32.624 62.7135 32.624C56.2764 32.624 51.0581 37.8423 51.0581 44.2794C51.0581 50.7166 56.2764 55.9348 62.7135 55.9348C66.0775 55.9348 69.1084 54.5096 71.2359 52.2303C70.6416 52.368 70.0222 52.4408 69.386 52.4408C64.8786 52.4406 61.2246 48.7866 61.2246 44.2793Z" fill="#F4E471"/>
<path d="M554.688 69.7373V31.3188H565.018V38.022H565.419C566.119 35.6376 567.295 33.8367 568.945 32.6194C570.596 31.3855 572.497 30.7686 574.648 30.7686C575.182 30.7686 575.757 30.8019 576.374 30.8686C576.991 30.9353 577.533 31.027 578 31.1437V40.5983C577.499 40.4482 576.807 40.3148 575.924 40.1981C575.04 40.0814 574.231 40.023 573.498 40.023C571.93 40.023 570.529 40.3648 569.296 41.0485C568.078 41.7155 567.111 42.6493 566.394 43.8499C565.694 45.0504 565.344 46.4344 565.344 48.0019V69.7373H554.688Z" fill="white"/>
<path d="M533.624 70.488C529.672 70.488 526.27 69.6876 523.419 68.0868C520.584 66.4694 518.4 64.1849 516.866 61.2335C515.331 58.2654 514.564 54.7554 514.564 50.7034C514.564 46.7515 515.331 43.2832 516.866 40.2984C518.4 37.3136 520.559 34.9875 523.344 33.32C526.145 31.6526 529.43 30.8188 533.198 30.8188C535.733 30.8188 538.092 31.2274 540.277 32.0444C542.478 32.8448 544.396 34.0537 546.03 35.6712C547.68 37.2886 548.964 39.3229 549.881 41.7741C550.799 44.2086 551.257 47.06 551.257 50.3282V53.2547H518.816V46.6515H541.227C541.227 45.1174 540.894 43.7584 540.227 42.5745C539.56 41.3906 538.634 40.4652 537.45 39.7982C536.283 39.1145 534.924 38.7727 533.374 38.7727C531.756 38.7727 530.322 39.1479 529.071 39.8982C527.838 40.6319 526.87 41.6241 526.17 42.8747C525.47 44.1086 525.111 45.4842 525.095 47.0016V53.2797C525.095 55.1806 525.445 56.823 526.145 58.207C526.862 59.591 527.871 60.6582 529.172 61.4086C530.472 62.1589 532.015 62.5341 533.799 62.5341C534.983 62.5341 536.066 62.3674 537.05 62.0339C538.034 61.7004 538.876 61.2001 539.577 60.5332C540.277 59.8662 540.81 59.0491 541.177 58.082L551.032 58.7323C550.532 61.1001 549.506 63.1678 547.956 64.9353C546.421 66.6861 544.437 68.0534 542.003 69.0373C539.585 70.0044 536.792 70.488 533.624 70.488Z" fill="white"/>
<path d="M486.339 47.5267V69.7374H475.684V18.5127H486.039V38.0971H486.489C487.356 35.8294 488.757 34.0535 490.691 32.7696C492.626 31.4689 495.052 30.8186 497.97 30.8186C500.638 30.8186 502.964 31.4022 504.948 32.5695C506.949 33.72 508.5 35.3792 509.6 37.5469C510.718 39.6979 511.268 42.2741 511.251 45.2756V69.7374H500.596V47.1765C500.613 44.8087 500.012 42.9661 498.795 41.6488C497.595 40.3315 495.911 39.6729 493.743 39.6729C492.292 39.6729 491.008 39.9814 489.891 40.5983C488.79 41.2153 487.923 42.1157 487.29 43.2996C486.673 44.4669 486.356 45.8759 486.339 47.5267Z" fill="white"/>
<path d="M455.226 70.488C451.29 70.488 447.905 69.6542 445.071 67.9867C442.253 66.3026 440.085 63.9682 438.568 60.9834C437.067 57.9986 436.316 54.5636 436.316 50.6784C436.316 46.7432 437.075 43.2915 438.592 40.3234C440.127 37.3387 442.303 35.0125 445.121 33.3451C447.939 31.6609 451.29 30.8188 455.176 30.8188C458.527 30.8188 461.462 31.4275 463.98 32.6447C466.498 33.862 468.49 35.5711 469.958 37.7722C471.425 39.9733 472.234 42.5578 472.384 45.5259H462.329C462.045 43.6083 461.295 42.0659 460.078 40.8987C458.877 39.7148 457.302 39.1228 455.351 39.1228C453.7 39.1228 452.257 39.5731 451.023 40.4735C449.806 41.3573 448.856 42.6495 448.172 44.3504C447.488 46.0512 447.147 48.1105 447.147 50.5283C447.147 52.9795 447.48 55.0639 448.147 56.7814C448.831 58.4988 449.79 59.8078 451.023 60.7082C452.257 61.6087 453.7 62.0589 455.351 62.0589C456.568 62.0589 457.66 61.8088 458.627 61.3085C459.611 60.8083 460.42 60.0829 461.053 59.1325C461.704 58.1654 462.129 57.0065 462.329 55.6558H472.384C472.217 58.5906 471.417 61.1751 469.983 63.4095C468.565 65.6273 466.606 67.3615 464.105 68.6121C461.604 69.8627 458.644 70.488 455.226 70.488Z" fill="white"/>
<path d="M434.861 31.3187V39.3225H411.725V31.3187H434.861ZM416.977 22.1143H427.632V57.9315C427.632 58.9153 427.782 59.6824 428.082 60.2326C428.383 60.7662 428.8 61.1414 429.333 61.3582C429.883 61.5749 430.517 61.6833 431.234 61.6833C431.734 61.6833 432.235 61.6416 432.735 61.5583C433.235 61.4582 433.618 61.3832 433.885 61.3332L435.561 69.262C435.028 69.4287 434.277 69.6205 433.31 69.8372C432.343 70.0707 431.167 70.2124 429.783 70.2625C427.215 70.3625 424.964 70.0207 423.03 69.237C421.112 68.4532 419.62 67.236 418.553 65.5852C417.486 63.9344 416.96 61.8501 416.977 59.3322V22.1143Z" fill="white"/>
<path d="M388.046 70.4629C385.595 70.4629 383.41 70.0377 381.493 69.1873C379.575 68.3202 378.058 67.0446 376.94 65.3605C375.84 63.6597 375.29 61.542 375.29 59.0074C375.29 56.8731 375.681 55.0805 376.465 53.6298C377.249 52.1791 378.316 51.0119 379.667 50.1281C381.017 49.2444 382.551 48.5774 384.269 48.1272C386.003 47.677 387.821 47.3601 389.722 47.1767C391.956 46.9433 393.757 46.7265 395.124 46.5264C396.491 46.3096 397.484 45.9928 398.101 45.576C398.718 45.1591 399.026 44.5421 399.026 43.7251V43.575C399.026 41.9909 398.526 40.7653 397.525 39.8982C396.541 39.0311 395.141 38.5976 393.323 38.5976C391.406 38.5976 389.88 39.0228 388.746 39.8732C387.612 40.7069 386.862 41.7575 386.495 43.0247L376.64 42.2243C377.14 39.8899 378.124 37.8722 379.592 36.1714C381.059 34.4539 382.952 33.1366 385.269 32.2195C387.604 31.2857 390.305 30.8188 393.373 30.8188C395.508 30.8188 397.55 31.069 399.501 31.5692C401.469 32.0694 403.211 32.8448 404.729 33.8953C406.263 34.9458 407.472 36.2965 408.355 37.9473C409.239 39.5814 409.681 41.5407 409.681 43.8251V69.7376H399.576V64.41H399.276C398.659 65.6106 397.834 66.6694 396.8 67.5866C395.766 68.487 394.524 69.1957 393.073 69.7126C391.622 70.2128 389.947 70.4629 388.046 70.4629ZM391.097 63.1094C392.665 63.1094 394.049 62.8009 395.249 62.184C396.45 61.5503 397.392 60.6999 398.076 59.6327C398.759 58.5655 399.101 57.3566 399.101 56.006V51.929C398.768 52.1458 398.309 52.3459 397.725 52.5293C397.158 52.6961 396.516 52.8545 395.799 53.0045C395.082 53.1379 394.365 53.263 393.648 53.3797C392.931 53.4798 392.281 53.5715 391.697 53.6548C390.447 53.8383 389.355 54.1301 388.421 54.5303C387.487 54.9305 386.762 55.4724 386.245 56.1561C385.728 56.823 385.469 57.6568 385.469 58.6573C385.469 60.108 385.995 61.2168 387.045 61.9839C388.112 62.7342 389.463 63.1094 391.097 63.1094Z" fill="white"/>
<path d="M323.491 69.7374L308.834 18.5127H320.665L329.144 54.1048H329.569L338.923 18.5127H349.053L358.383 54.1799H358.833L367.312 18.5127H379.143L364.486 69.7374H353.931L344.176 36.2462H343.776L334.046 69.7374H323.491Z" fill="white"/>
<path d="M277.915 70.488C273.963 70.488 270.562 69.6876 267.71 68.0868C264.876 66.4694 262.691 64.1849 261.157 61.2335C259.623 58.2654 258.856 54.7554 258.856 50.7034C258.856 46.7515 259.623 43.2832 261.157 40.2984C262.691 37.3136 264.851 34.9875 267.635 33.32C270.437 31.6526 273.721 30.8188 277.49 30.8188C280.024 30.8188 282.384 31.2274 284.568 32.0444C286.769 32.8448 288.687 34.0537 290.321 35.6712C291.972 37.2886 293.256 39.3229 294.173 41.7741C295.09 44.2086 295.549 47.06 295.549 50.3282V53.2547H263.108V46.6515H285.519C285.519 45.1174 285.185 43.7584 284.518 42.5745C283.851 41.3906 282.926 40.4652 281.742 39.7982C280.575 39.1145 279.216 38.7727 277.665 38.7727C276.048 38.7727 274.614 39.1479 273.363 39.8982C272.129 40.6319 271.162 41.6241 270.462 42.8747C269.761 44.1086 269.403 45.4842 269.386 47.0016V53.2797C269.386 55.1806 269.736 56.823 270.437 58.207C271.154 59.591 272.162 60.6582 273.463 61.4086C274.764 62.1589 276.306 62.5341 278.09 62.5341C279.274 62.5341 280.358 62.3674 281.342 62.0339C282.326 61.7004 283.168 61.2001 283.868 60.5332C284.568 59.8662 285.102 59.0491 285.469 58.082L295.324 58.7323C294.823 61.1001 293.798 63.1678 292.247 64.9353C290.713 66.6861 288.729 68.0534 286.294 69.0373C283.876 70.0044 281.083 70.488 277.915 70.488Z" fill="white"/>
<path d="M233.308 70.3627C230.39 70.3627 227.747 69.6123 225.379 68.1116C223.028 66.5942 221.16 64.3681 219.776 61.4334C218.409 58.482 217.725 54.8635 217.725 50.5781C217.725 46.176 218.434 42.5159 219.851 39.5979C221.268 36.6631 223.153 34.4704 225.504 33.0197C227.872 31.5523 230.465 30.8186 233.283 30.8186C235.434 30.8186 237.226 31.1855 238.66 31.9192C240.111 32.6362 241.278 33.5366 242.162 34.6205C243.062 35.6876 243.746 36.7381 244.213 37.772H244.538V18.5127H255.168V69.7374H244.663V63.5844H244.213C243.713 64.6516 243.004 65.7104 242.087 66.7609C241.186 67.7948 240.011 68.6535 238.56 69.3372C237.126 70.0208 235.375 70.3627 233.308 70.3627ZM236.684 61.8836C238.402 61.8836 239.852 61.4167 241.036 60.4829C242.237 59.5325 243.154 58.2068 243.788 56.506C244.438 54.8052 244.763 52.8126 244.763 50.5281C244.763 48.2437 244.446 46.2594 243.813 44.5752C243.179 42.8911 242.262 41.5905 241.061 40.6734C239.861 39.7563 238.402 39.2977 236.684 39.2977C234.933 39.2977 233.458 39.7729 232.257 40.7234C231.057 41.6739 230.148 42.9912 229.531 44.6753C228.914 46.3594 228.605 48.3104 228.605 50.5281C228.605 52.7625 228.914 54.7385 229.531 56.456C230.164 58.1568 231.073 59.4908 232.257 60.4579C233.458 61.4084 234.933 61.8836 236.684 61.8836Z" fill="white"/>
<path d="M196.835 70.488C192.95 70.488 189.59 69.6626 186.755 68.0118C183.937 66.3443 181.761 64.0265 180.227 61.0584C178.693 58.0736 177.926 54.6136 177.926 50.6784C177.926 46.7098 178.693 43.2415 180.227 40.2734C181.761 37.2886 183.937 34.9708 186.755 33.32C189.59 31.6526 192.95 30.8188 196.835 30.8188C200.72 30.8188 204.072 31.6526 206.89 33.32C209.724 34.9708 211.909 37.2886 213.443 40.2734C214.977 43.2415 215.744 46.7098 215.744 50.6784C215.744 54.6136 214.977 58.0736 213.443 61.0584C211.909 64.0265 209.724 66.3443 206.89 68.0118C204.072 69.6626 200.72 70.488 196.835 70.488ZM196.885 62.234C198.652 62.234 200.128 61.7337 201.312 60.7333C202.496 59.7161 203.388 58.3321 203.988 56.5813C204.605 54.8304 204.914 52.8378 204.914 50.6034C204.914 48.369 204.605 46.3763 203.988 44.6255C203.388 42.8747 202.496 41.4907 201.312 40.4735C200.128 39.4563 198.652 38.9478 196.885 38.9478C195.101 38.9478 193.6 39.4563 192.383 40.4735C191.182 41.4907 190.273 42.8747 189.656 44.6255C189.056 46.3763 188.756 48.369 188.756 50.6034C188.756 52.8378 189.056 54.8304 189.656 56.5813C190.273 58.3321 191.182 59.7161 192.383 60.7333C193.6 61.7337 195.101 62.234 196.885 62.234Z" fill="white"/>
<path d="M118.749 18.5127H132.105L146.212 52.9293H146.812L160.919 18.5127H174.275V69.7374H163.77V36.3963H163.345L150.089 69.4873H142.935L129.679 36.2713H129.254V69.7374H118.749V18.5127Z" fill="white"/>
</g>
<defs>
<clipPath id="clip0_515_56">
<rect width="578" height="89" fill="white"/>
</clipPath>
</defs>
</svg>
